<svg width="936" height="927" viewBox="0 0 936 927" fill="none" xmlns="http://www.w3.org/2000/svg">
<path d="M467.84 927C726.221 927 935.68 719.484 935.68 463.5C935.68 207.516 726.221 0 467.84 0C209.459 0 0 207.516 0 463.5C0 719.484 209.459 927 467.84 927Z" fill="white"/>
<path d="M769.838 400.676C768.815 405.447 764.385 428.281 752.286 428.281C750.875 428.328 749.472 428.036 748.197 427.429V427.429L743.596 425.554C737.358 423.306 730.906 421.707 724.34 420.783C678.332 410.843 638.102 447.763 617.313 471.563V471.733C613.564 475.994 610.327 480.083 608.112 483.165C610.508 477.113 613.224 471.192 616.248 465.429C616.248 465.383 616.266 465.34 616.298 465.308C616.33 465.276 616.374 465.258 616.419 465.258L621.701 455.318C637.208 431.291 662.271 401.982 697.204 392.837C697.437 392.81 697.667 392.753 697.885 392.667V392.667L703.338 391.644H703.679C704.235 391.503 704.81 391.446 705.383 391.474H705.553C706.235 391.474 707.087 391.303 707.769 391.303H708.11C708.791 391.303 709.643 391.133 710.325 391.133H710.666C711.518 391.133 712.54 390.963 713.506 390.963C714.531 390.986 715.556 390.929 716.573 390.792H717.084C719.299 390.792 721.514 390.792 724.071 390.963H724.582C727.138 391.133 729.694 391.303 732.42 391.644H732.761L736.68 392.155H737.021C739.999 392.515 742.956 393.027 745.882 393.689C745.975 393.678 746.068 393.687 746.157 393.716C746.245 393.746 746.326 393.795 746.393 393.859C749.461 394.541 752.528 395.393 755.765 396.245C755.936 396.245 756.106 396.416 756.447 396.416C760.378 397.577 764.245 398.942 768.034 400.505C768.418 400.706 768.817 400.877 769.227 401.016V401.016L769.838 400.676Z" fill="#989999"/>
<path d="M738.825 475.482C735.985 473.267 733.145 471.393 730.304 469.518C730.134 469.348 729.964 469.348 729.964 469.178C727.748 467.757 725.704 466.621 723.488 465.429C723.318 465.429 723.318 465.258 723.148 465.258C720.932 464.065 718.888 463.213 716.843 462.191C716.797 462.191 716.754 462.173 716.722 462.141C716.69 462.109 716.672 462.066 716.672 462.021C715.65 461.68 714.798 461.169 713.832 460.828C713.787 460.828 713.744 460.81 713.712 460.778C713.68 460.746 713.662 460.703 713.662 460.657C711.816 459.851 709.918 459.168 707.982 458.613C707.811 458.613 707.811 458.613 707.641 458.442L702.529 456.909C702.358 456.909 702.358 456.909 702.188 456.738L699.973 456.227L697.758 455.716H697.417C696.906 455.545 696.224 455.545 695.713 455.375H695.372C694.69 455.204 694.179 455.205 693.668 455.034H693.498C692.986 455.034 692.646 454.864 692.078 454.864H691.737C690.386 454.63 689.018 454.516 687.647 454.523H687.249C641.227 453.671 603.908 499.353 598.115 505.999C597.774 506.339 597.603 506.68 597.263 507.021C597.263 507.021 650.087 462.021 696.281 486.402L708.039 493.218C718.092 500.716 737.177 479.231 739.279 475.653L738.825 475.482Z" fill="black"/>
<path d="M584.426 405.106C588.345 380.057 597.376 353.985 615.95 333.523L616.461 333.012C617.947 331.426 619.541 329.945 621.233 328.581L621.573 328.24C622.085 327.729 622.596 327.388 623.107 326.82C623.152 326.82 623.196 326.802 623.228 326.771C623.259 326.739 623.277 326.695 623.277 326.65C623.959 326.139 624.697 325.457 625.322 324.946C625.493 324.946 625.493 324.776 625.663 324.605C626.386 324.088 627.069 323.519 627.708 322.901C627.878 322.731 628.049 322.731 628.049 322.56C628.901 321.879 629.753 321.14 630.775 320.516C631.627 319.834 632.65 319.096 633.615 318.471C633.786 318.3 633.956 318.3 634.126 318.13C636.342 316.71 638.557 315.29 641.113 313.699C641.283 313.529 641.454 313.529 641.624 313.359C644.274 311.745 647.004 310.267 649.803 308.928C649.974 308.928 649.974 308.758 650.158 308.758C651.578 308.076 652.885 307.338 654.419 306.713C654.589 306.713 654.589 306.543 654.759 306.543C657.827 305.009 661.235 303.702 664.699 302.282C664.767 302.218 664.847 302.169 664.936 302.139C665.024 302.11 665.118 302.101 665.211 302.112C668.619 300.692 672.311 299.556 676.116 298.363C676.287 298.363 676.628 298.193 676.798 298.193C681.569 296.773 686.511 295.466 691.793 294.444C691.886 294.455 691.98 294.446 692.068 294.417C692.157 294.387 692.238 294.338 692.305 294.274L693.157 294.103C694.577 297.511 699.291 309.439 699.291 319.493C699.291 326.593 696.906 332.785 689.067 334.489H688.897L683.103 335.681C675.461 337.498 668.035 340.126 660.951 343.52V343.52C626.87 356.655 608.282 388.009 598.058 418.511V418.682C592.299 436.74 588.491 455.363 586.698 474.233L584.426 405.106Z" fill="#989999"/>
<path d="M727.237 380.029H725.817L720.364 379.517C717.979 379.347 715.763 379.347 713.378 379.347C708.475 379.348 703.579 379.69 698.723 380.369C657.997 383.096 629.866 415.984 612.826 444.952V445.122C606.851 455.35 601.631 466 597.206 476.988C597.717 473.068 598.399 468.297 599.421 462.674L608.282 427.912C608.282 427.867 608.3 427.823 608.332 427.791C608.364 427.759 608.407 427.741 608.452 427.741C618.677 402.351 635.206 374.917 661.973 359.069C662.174 358.91 662.406 358.794 662.655 358.728C663.507 358.217 665.381 357.308 667.937 356.172C668.066 356.154 668.186 356.094 668.278 356.002C668.789 355.831 669.471 355.491 670.152 355.32L670.323 355.15C671.078 354.764 671.88 354.478 672.708 354.298C672.879 354.298 672.879 354.127 673.049 354.127C673.731 353.787 674.583 353.616 675.264 353.275C675.435 353.275 675.605 353.105 675.776 353.105C676.798 352.764 677.65 352.423 678.616 352.083L681.683 351.06C681.775 351.072 681.869 351.062 681.958 351.033C682.046 351.003 682.127 350.955 682.194 350.89C684.596 350.112 687.043 349.482 689.521 349.001C689.614 349.013 689.708 349.003 689.796 348.974C689.885 348.944 689.966 348.896 690.033 348.831C692.759 348.149 695.486 347.638 698.382 347.127H698.723C700.143 346.956 701.563 346.616 702.983 346.445H703.324C706.615 345.916 709.934 345.575 713.264 345.423H713.775C717.183 345.252 720.762 345.082 724.34 345.082H725.022C729.691 345.126 734.355 345.411 738.995 345.934H740.415C741.097 351.231 743.653 380.014 727.294 380.014" fill="#989999"/>
<path d="M233.524 450.774C233.524 450.774 286.363 448.9 342.085 512.133C342.085 511.963 261.3 516.564 233.524 450.774Z" fill="black"/>
<path d="M278.354 520.142C275.287 521.164 314.309 552.178 342.596 535.762C342.596 535.762 324.874 505.26 278.354 520.142Z" fill="black"/>
<path d="M687.533 501.057C682.933 491.117 676.968 485.891 667.085 483.165C646.111 478.55 622.085 489.129 622.085 489.129C618.677 489.129 611.349 491.969 611.349 491.969C579.995 524.175 558.354 477.13 556.65 474.233C546.521 454.517 540.492 432.953 538.928 410.843C539.032 409.988 538.974 409.121 538.758 408.287C538.413 402.896 538.413 397.489 538.758 392.099V392.099C540.596 394.821 543.208 396.931 546.257 398.154C549.306 399.377 552.651 399.658 555.861 398.961C559.071 398.264 561.999 396.621 564.266 394.243C566.533 391.866 568.035 388.863 568.578 385.623C569.23 381.751 568.506 377.772 566.533 374.377L562.103 364.664L585.789 356.825L554.548 347.78L550.629 338.919C550.459 338.408 550.118 337.726 549.948 337.215C547.811 332.648 544.594 328.671 540.575 325.628V325.628C542.372 324.355 543.836 322.669 544.845 320.711C545.853 318.754 546.376 316.583 546.369 314.381C546.358 311.513 545.465 308.717 543.813 306.372C543.165 305.497 542.422 304.697 541.598 303.986C537.285 299.374 532.42 295.31 527.114 291.888C516.875 285.242 506.822 282.516 499.494 284.788C504.351 287.89 508.525 291.949 511.763 296.716C512.046 297.07 512.24 297.487 512.329 297.932C512.418 298.377 512.399 298.836 512.274 299.272C512.089 300.174 511.556 300.966 510.79 301.476C510.024 301.987 509.088 302.174 508.185 301.998C507.665 301.885 507.179 301.651 506.765 301.317V301.317C493.473 292.115 479.784 288.537 471.151 292.115C477.514 295.549 482.996 300.409 487.168 306.315C487.748 307.098 487.993 308.078 487.85 309.042C487.665 309.943 487.132 310.735 486.366 311.246C485.6 311.756 484.664 311.944 483.76 311.768C483.59 311.768 483.249 311.598 483.079 311.598C467.743 301.885 452.236 298.647 443.205 303.418C451.554 306.656 460.586 314.665 468.083 325.741C471.111 330.079 475.224 333.545 480.012 335.795V335.795C481.204 336.306 482.568 336.988 484.101 337.499C486.631 338.37 489.269 338.886 491.94 339.033V339.033C486.828 349.086 486.828 363.926 486.828 363.926V428.849C485.635 441.97 477.115 459.862 461.097 459.862C456.618 459.928 452.179 459.016 448.089 457.192C443.998 455.367 440.354 452.673 437.411 449.297C436.388 447.877 436.729 442.652 436.729 440.266C438.852 439.778 441.027 439.549 443.205 439.584C444.892 439.597 446.551 440.023 448.037 440.825C449.522 441.627 450.788 442.781 451.725 444.185C451.725 427.997 444.227 421.692 435.877 417.432C437.297 416.921 447.465 414.024 452.406 421.181C452.917 415.217 448.657 396.813 435.025 392.553V387.271C435.025 387.1 444.738 359.836 468.254 361.199C468.254 361.199 479.159 363.074 479.159 362.903L473.877 352.509L446.101 345.508C443.261 330.172 435.196 318.755 413.441 319.095C404.865 319.162 396.645 322.529 390.486 328.497C384.328 334.465 380.704 342.576 380.369 351.145V351.145L380.198 392.042C366.736 396.302 362.476 414.535 362.988 420.442C367.929 413.342 378.153 416.182 379.517 416.694C371.167 420.783 363.669 427.258 363.669 443.447C365.884 440.72 368.44 438.846 372.189 438.846C374.363 438.895 376.528 439.123 378.665 439.527L380.085 440.039C377.529 468.155 362.022 528.151 347.708 541.272C327.43 559.846 268.187 540.25 265.574 538.432C265.233 566.719 291.475 609.845 347.538 599.777C348.478 599.639 349.428 599.582 350.378 599.606L345.095 628.078L356.683 628.248V643.755H344.584C343.766 643.747 342.956 643.915 342.21 644.249C341.463 644.583 340.797 645.074 340.258 645.689C339.719 646.304 339.319 647.028 339.085 647.812C338.851 648.595 338.789 649.42 338.904 650.23L340.438 660.625H390.877L392.765 648.697C392.865 648.083 392.829 647.455 392.66 646.856C392.491 646.258 392.193 645.704 391.787 645.233C391.381 644.762 390.877 644.386 390.31 644.13C389.743 643.875 389.127 643.747 388.505 643.755H374.291V628.532L384.685 628.703L389.798 615.411L401.74 638.756L414.179 621.205L426.619 638.756L438.547 615.411L443.659 628.703L454.054 628.532V643.698H440.592C439.879 643.702 439.176 643.857 438.528 644.154C437.881 644.451 437.304 644.883 436.836 645.421C436.369 645.958 436.021 646.589 435.816 647.271C435.612 647.954 435.555 648.672 435.65 649.378L437.354 660.625H487.793L489.327 650.06C489.441 649.277 489.385 648.479 489.164 647.72C488.942 646.961 488.559 646.259 488.042 645.66C487.525 645.062 486.885 644.582 486.166 644.254C485.446 643.925 484.665 643.755 483.874 643.755H471.094V628.191L482.681 628.021L471.094 565.128C480.466 578.42 494.609 594.608 513.524 606.877L521.718 643.357L511.99 660.398H544.381L534.668 643.357L540.121 619.842C549.561 623.044 559.424 624.824 569.388 625.124V625.124L573.307 644.039L564.105 660.398H596.482L587.109 643.868L588.302 638.416L591.37 623.931C618.634 619.671 649.818 605.003 685.091 574.16L686.511 573.308C686.341 573.308 686.341 573.308 686.17 573.137C686.341 573.137 686.341 572.967 686.511 572.967L686 573.137C677.139 570.297 668.96 567.173 661.121 563.936H661.291C658.243 561.99 655.818 559.21 654.305 555.927C652.153 551.269 651.93 545.95 653.686 541.129C655.442 536.308 659.034 532.378 663.677 530.196C672.708 526.106 684.807 530.196 689.919 538.375C690.089 538.205 692.93 512.985 687.533 501.057ZM414.889 356.03C413.164 356.039 411.475 355.534 410.037 354.581C408.599 353.628 407.477 352.269 406.813 350.676C406.149 349.084 405.973 347.33 406.307 345.638C406.642 343.945 407.472 342.39 408.692 341.17C409.912 339.95 411.467 339.121 413.159 338.786C414.852 338.452 416.605 338.627 418.198 339.292C419.79 339.956 421.149 341.078 422.102 342.516C423.055 343.954 423.56 345.643 423.551 347.368C423.504 349.655 422.572 351.836 420.952 353.451C419.332 355.066 417.148 355.99 414.861 356.03H414.889ZM525.495 356.03C523.773 356.033 522.088 355.525 520.655 354.57C519.221 353.615 518.104 352.257 517.443 350.666C516.782 349.076 516.607 347.325 516.941 345.636C517.276 343.946 518.104 342.394 519.32 341.175C520.537 339.957 522.088 339.126 523.777 338.789C525.466 338.452 527.217 338.624 528.808 339.282C530.4 339.94 531.76 341.056 532.717 342.488C533.674 343.92 534.185 345.603 534.185 347.325C534.149 349.625 533.218 351.82 531.59 353.445C529.963 355.07 527.766 355.997 525.466 356.03H525.495Z" fill="black"/>
<path d="M769.838 391.474C769.497 393.008 768.986 396.245 768.134 399.994C765.919 408.514 761.659 419.761 752.968 419.761C751.687 419.768 750.416 419.537 749.219 419.079L744.448 417.375C738.151 415.303 731.63 413.988 725.022 413.456V413.456C676.457 404.936 636.058 447.366 617.313 471.563V471.734C613.32 476.804 609.622 482.1 606.237 487.595C606.408 487.084 606.748 486.573 606.919 486.062C607.089 485.55 607.6 484.358 608.112 483.222C610.506 477.15 613.222 471.211 616.248 465.429C616.248 465.383 616.266 465.34 616.298 465.308C616.33 465.276 616.374 465.258 616.419 465.258C617.952 462.191 619.827 458.783 621.701 455.318C636.015 430.098 660.567 397.381 696.962 386.305C697.196 386.278 697.425 386.221 697.644 386.135C698.496 385.964 700.37 385.453 702.926 384.942H703.267C703.778 384.771 704.46 384.771 704.971 384.601H705.142C705.823 384.431 706.675 384.431 707.357 384.26H707.698C708.379 384.26 709.118 384.09 709.913 384.09H710.254C711.193 383.947 712.144 383.89 713.094 383.919C714.116 383.919 714.968 383.749 716.161 383.749H716.672C718.887 383.579 721.103 383.579 723.488 383.579H724.17C726.726 383.579 729.282 383.749 732.008 383.919H732.349C733.769 384.09 735.076 384.09 736.439 384.26H736.78C739.62 384.601 742.744 384.942 745.811 385.453H746.322C749.389 385.964 752.627 386.646 755.865 387.498C756.035 387.498 756.376 387.668 756.546 387.668C760.806 388.691 765.067 390.054 769.497 391.588L769.838 391.474Z" fill="#DD2A1B"/>
<path d="M737.802 337.613C732.69 337.272 727.862 337.272 723.148 337.272H722.466C718.887 337.442 715.366 337.613 711.901 337.953H711.39C707.982 338.294 704.744 338.805 701.677 339.373H701.336C699.802 339.714 698.496 339.885 697.076 340.225H696.735C693.895 340.907 691.055 341.645 688.385 342.27C688.293 342.259 688.199 342.268 688.11 342.297C688.022 342.327 687.941 342.376 687.874 342.441C685.318 343.122 682.933 343.974 680.774 344.656C680.604 344.656 680.433 344.826 680.263 344.826L677.196 345.849C676.21 346.146 675.258 346.546 674.356 347.041C674.226 347.059 674.107 347.119 674.015 347.212C673.163 347.553 672.481 347.893 671.8 348.234C671.629 348.234 671.629 348.405 671.459 348.405C670.607 348.745 669.925 349.086 669.244 349.427C669.073 349.427 669.073 349.427 669.073 349.598C668.489 349.847 667.92 350.132 667.369 350.45C667.199 350.45 667.199 350.62 667.028 350.62C664.472 352.04 662.598 353.02 661.746 353.361C661.56 353.449 661.388 353.564 661.235 353.701C606.351 389.202 598.512 472.472 596.979 484.926C596.979 485.607 596.808 486.118 596.808 486.8C596.808 486.8 625.095 381.477 698.894 373.809C706.026 372.474 713.281 371.903 720.535 372.105V372.105L725.988 372.446C743.709 373.298 739.79 343.293 739.279 337.499L737.802 337.613Z" fill="white"/>
<path d="M725.874 372.559H725.022L719.569 372.218C712.315 372.016 705.061 372.587 697.928 373.922V373.922C655.668 378.353 628.347 414.649 612.727 444.924V445.094C605.794 458.429 600.2 472.418 596.027 486.857C596.027 486.175 596.198 485.664 596.198 485.153C596.368 483.619 596.709 480.722 597.22 476.959C597.731 473.04 598.413 468.269 599.435 462.759C601.608 450.987 604.569 439.373 608.296 427.997C608.296 427.952 608.314 427.908 608.346 427.876C608.378 427.844 608.421 427.826 608.467 427.826C617.498 401.073 633.175 371.764 660.454 353.985C660.607 353.847 660.779 353.733 660.965 353.645V353.645C661.817 353.133 663.521 352.111 666.247 350.805C666.418 350.805 666.418 350.634 666.588 350.634C667.099 350.293 667.781 350.123 668.292 349.782C668.337 349.782 668.381 349.764 668.413 349.732C668.445 349.7 668.463 349.657 668.463 349.612C669.144 349.271 669.996 348.93 670.678 348.589C670.848 348.589 670.848 348.419 671.019 348.419C671.7 348.078 672.552 347.737 673.234 347.396C673.404 347.396 673.575 347.226 673.745 347.226C674.597 346.885 675.619 346.544 676.585 346.033H676.755L679.823 345.011C679.993 345.011 680.164 344.84 680.334 344.84C682.549 344.159 684.935 343.307 687.434 342.625C687.527 342.637 687.62 342.627 687.709 342.598C687.797 342.568 687.878 342.52 687.945 342.455C690.501 341.773 693.228 341.035 696.295 340.41H696.636C698.056 340.069 699.476 339.899 700.896 339.558H701.237C704.304 339.047 707.542 338.536 710.95 338.138H711.461C714.968 337.73 718.495 337.503 722.026 337.456H722.75C727.637 337.318 732.529 337.432 737.405 337.797H738.257C738.427 339.217 738.768 342.057 738.938 345.636C739.62 356.044 738.597 372.403 725.817 372.403" fill="white"/>
<path d="M688.215 288.537C683.02 289.708 677.898 291.187 672.879 292.967C672.708 292.967 672.368 293.137 672.197 293.137C668.41 294.501 664.832 295.864 661.462 297.227C661.291 297.227 661.121 297.398 660.951 297.398C657.542 298.931 654.305 300.465 651.238 301.998C651.067 301.998 651.067 302.169 650.897 302.169C649.477 302.85 648.057 303.702 646.637 304.384C646.466 304.384 646.466 304.554 646.296 304.554C643.456 306.088 640.843 307.792 638.287 309.326C638.117 309.496 637.946 309.496 637.776 309.666C635.39 311.2 633.175 312.734 631.13 314.267C630.96 314.438 630.789 314.438 630.619 314.608C629.596 315.29 628.744 316.028 627.779 316.653C626.927 317.335 625.904 318.073 625.052 318.698L624.712 319.039C624.03 319.55 623.292 320.231 622.667 320.743L622.326 321.083C621.644 321.765 620.906 322.276 620.281 322.958L620.111 323.128C619.646 323.649 619.132 324.125 618.577 324.548L618.236 324.889C615.851 327.104 614.487 328.638 613.635 329.49L613.124 330.001C567.684 384.544 586.144 473.423 588.586 486.97C588.757 487.652 588.757 488.39 588.927 489.015C588.927 489.015 584.497 370.571 658.508 338.862C665.404 335.215 672.656 332.283 680.149 330.115V330.115L685.943 328.581C704.687 323.81 691.055 293.819 688.499 288.025L688.215 288.537Z" fill="#0E53A3"/>
<path d="M324.363 479.231C322.318 476.505 319.762 473.267 316.695 469.859C312.776 465.429 308.175 460.487 303.063 455.375L302.892 455.204C280.399 433.734 246.986 411.07 209.668 419.079C203.079 419.881 196.613 421.484 190.412 423.85V423.85L185.812 425.725C184.505 426.235 183.123 426.523 181.722 426.577C169.453 426.406 165.022 403.743 164 398.972L164.682 398.631C165.022 398.46 165.193 398.46 165.534 398.29C165.874 398.12 165.704 398.12 165.874 398.12C169.794 396.586 173.713 395.28 177.462 394.03C177.632 394.03 177.803 393.859 178.143 393.859C181.381 392.837 184.448 392.155 187.516 391.474C187.608 391.485 187.702 391.476 187.79 391.447C187.879 391.417 187.96 391.368 188.027 391.303C191.094 390.622 194.161 390.111 196.888 389.77H197.229C198.649 389.599 199.955 389.429 201.148 389.259H201.489C204.215 388.918 206.771 388.747 209.327 388.577H209.838C212.224 388.407 214.61 388.407 216.654 388.407H220.233C221.255 388.407 222.278 388.577 223.073 388.577H223.414C224.266 388.577 224.947 388.747 225.629 388.747H225.97C226.822 388.747 227.503 388.918 228.185 388.918H228.583C229.264 388.918 229.775 389.088 230.287 389.088H230.627C232.472 389.266 234.297 389.608 236.08 390.111C236.293 390.214 236.525 390.272 236.762 390.281V390.281C265.233 397.779 287.045 418.397 302.551 438.846V439.016C306.13 444.299 309.368 449.581 312.264 454.523C317.717 464.747 321.807 473.267 324.363 479.231" fill="#989999"/>
<path d="M336.121 474.29C331.75 463.602 326.625 453.238 320.785 443.276C318.058 438.675 315.104 434.075 311.924 429.303C294.713 404.595 269.323 380.909 235.058 378.694C230.203 378.008 225.306 377.667 220.403 377.671C218.018 377.671 215.802 377.671 213.417 377.842L207.964 378.353H206.544C190.185 378.353 192.912 349.541 193.252 343.917H194.786C199.371 343.444 203.979 343.216 208.589 343.236H209.27C212.849 343.236 216.37 343.406 219.835 343.577H220.346C223.754 343.747 226.992 344.258 230.287 344.599H230.627C232.161 344.769 233.467 345.11 234.887 345.281H235.228C238.068 345.792 241.022 346.303 243.578 346.985C243.67 346.973 243.764 346.982 243.853 347.012C243.941 347.041 244.022 347.09 244.089 347.155C246.645 347.837 249.031 348.575 251.416 349.029C251.587 349.029 251.757 349.2 251.928 349.2L254.995 350.222C256.017 350.563 257.04 350.918 257.835 351.259C258.005 351.259 258.176 351.429 258.346 351.429C259.198 351.77 259.88 351.941 260.561 352.281C260.691 352.299 260.81 352.359 260.902 352.452C261.673 352.813 262.476 353.098 263.302 353.304C263.347 353.304 263.391 353.322 263.423 353.354C263.455 353.386 263.472 353.429 263.472 353.474C264.127 353.687 264.756 353.972 265.347 354.326C265.476 354.344 265.596 354.404 265.688 354.497C268.414 355.689 270.118 356.712 270.97 357.053L271.652 357.393C294.656 371.026 309.992 393.008 320.387 415.16V415.33C322.091 419.59 323.795 423.85 325.158 427.94C330.253 443.01 333.905 458.529 336.064 474.29" fill="#989999"/>
<path d="M347.367 473.097C345.663 454.103 341.853 435.357 336.007 417.205C325.613 386.703 307.039 355.349 273.129 342.213C266.029 338.846 258.601 336.219 250.962 334.375L245.168 333.182H244.998C226.083 329.092 238.693 298.761 240.908 292.797L241.76 292.967C241.853 292.955 241.947 292.965 242.035 292.994C242.124 293.024 242.204 293.073 242.272 293.137C247.554 294.16 252.496 295.523 257.267 296.886C257.437 296.886 257.778 297.057 257.949 297.057C261.697 298.25 265.461 299.442 268.869 300.806C269.039 300.806 269.209 300.976 269.38 300.976C272.788 302.396 276.196 303.702 279.32 305.236C279.49 305.236 279.49 305.406 279.661 305.406C281.194 306.088 282.501 306.826 283.921 307.451C284.091 307.451 284.091 307.622 284.262 307.622C287.102 309.155 289.942 310.689 292.441 312.052C292.611 312.052 292.782 312.223 292.952 312.393C295.508 313.927 297.723 315.233 299.768 316.653C299.939 316.823 300.109 316.823 300.279 316.994C301.302 317.675 302.324 318.414 303.119 319.039C304.142 319.72 304.994 320.459 305.846 321.083C306.016 321.254 306.187 321.254 306.187 321.424C306.868 321.935 307.607 322.617 308.232 323.128C308.402 323.128 308.402 323.299 308.572 323.469C309.254 323.98 309.992 324.662 310.617 325.173L310.788 325.344C311.299 325.855 311.98 326.366 312.321 326.764L312.662 327.104C315.048 329.149 316.581 330.683 317.433 331.535L317.944 332.046C336.405 352.509 345.379 378.58 349.299 403.459V403.629C352.707 431.575 349.81 457.59 347.424 473.21" fill="#989999"/>
<path d="M327.771 487.425C327.601 487.084 323.511 480.609 316.695 471.563C312.946 466.792 308.345 461.169 303.063 455.375L302.892 455.204C281.422 432.2 247.668 406.469 208.986 413.285C202.403 413.983 195.899 415.295 189.56 417.205L184.789 418.738C183.593 419.196 182.321 419.428 181.04 419.42C172.35 419.42 168.09 408.173 165.874 399.653C165.68 399.163 165.565 398.646 165.534 398.12C164.852 395.052 164.341 392.439 164.114 391.303L164.795 391.133C168.983 389.649 173.25 388.397 177.575 387.384C177.746 387.384 177.916 387.214 178.257 387.214C181.495 386.362 184.732 385.68 187.8 385.169C187.892 385.181 187.986 385.171 188.074 385.142C188.163 385.112 188.244 385.063 188.311 384.999C191.299 384.445 194.313 384.047 197.342 383.806H197.683C199.103 383.635 200.409 383.635 201.602 383.465H201.943C204.669 383.295 207.396 383.124 209.782 383.124H210.293C212.678 383.124 215.064 383.124 217.279 383.295H217.79C218.813 383.295 219.835 383.465 220.858 383.465C221.88 383.465 222.732 383.635 223.698 383.635H224.038C224.891 383.806 225.572 383.806 226.254 383.976H226.595C227.447 384.147 228.128 384.147 228.81 384.317H229.151C229.832 384.487 230.343 384.487 230.855 384.658H231.195C233.922 385.169 235.626 385.68 236.478 385.851C236.635 385.942 236.809 386 236.989 386.021C266.142 395.052 287.613 417.716 302.438 439.357V439.527C306.016 444.81 309.254 450.092 312.151 455.034C316.595 462.868 320.633 470.925 324.249 479.174C324.931 480.722 325.442 481.915 325.953 483.108C326.465 484.301 326.805 485.323 327.146 485.948C327.347 486.41 327.518 486.884 327.657 487.368" fill="#E9C600"/>
<path d="M196.206 337.613C201.318 337.272 206.146 337.272 210.861 337.272H211.542C215.121 337.442 218.642 337.613 222.107 337.953H222.618C226.027 338.294 229.264 338.805 232.331 339.373H232.672C234.206 339.714 235.512 339.885 236.932 340.225H237.273C240.113 340.907 242.953 341.645 245.623 342.27C245.715 342.259 245.809 342.268 245.898 342.297C245.986 342.327 246.067 342.376 246.134 342.441C248.69 343.122 251.076 343.974 253.234 344.656C253.405 344.656 253.575 344.826 253.745 344.826L256.813 345.849C257.798 346.146 258.75 346.546 259.653 347.041C259.782 347.059 259.902 347.119 259.993 347.212C260.845 347.553 261.527 347.893 262.209 348.234C262.379 348.234 262.379 348.405 262.564 348.405C263.416 348.745 264.097 349.086 264.779 349.427C264.949 349.427 264.949 349.427 264.949 349.598C265.534 349.847 266.103 350.132 266.653 350.45C266.824 350.45 266.824 350.62 266.994 350.62C269.55 352.04 271.425 353.02 272.277 353.361C272.463 353.449 272.635 353.564 272.788 353.701C327.657 389.202 335.496 472.472 337.03 484.926C337.03 485.607 337.2 486.118 337.2 486.8C337.2 486.8 308.913 381.477 235.115 373.809C228.039 372.48 220.841 371.909 213.644 372.105L208.191 372.446C190.469 373.298 194.388 343.293 194.9 337.499L196.206 337.613Z" fill="white"/>
<path d="M337.654 486.914C333.394 472.425 327.745 458.382 320.785 444.98C318.229 439.868 315.104 434.586 311.924 429.36C295.565 403.459 270.857 377.558 235.74 373.979C228.607 372.644 221.352 372.073 214.098 372.275V372.275L208.645 372.616H207.964C195.354 372.616 194.161 356.087 194.672 345.508C194.636 344.934 194.693 344.359 194.843 343.804C195.013 341.077 195.354 338.862 195.354 337.669H196.206C201.318 337.328 206.26 337.328 210.861 337.328H211.542C215.121 337.499 218.642 337.669 222.107 338.01H222.618C226.027 338.351 229.264 338.862 232.331 339.43H232.672C234.206 339.771 235.512 339.941 236.932 340.282H237.273C240.113 340.964 242.953 341.702 245.623 342.327C245.793 342.327 245.964 342.497 246.134 342.497C248.69 343.179 251.076 344.031 253.234 344.713C253.405 344.713 253.575 344.883 253.745 344.883C254.795 345.206 255.82 345.605 256.813 346.076V346.076C257.835 346.417 258.857 346.928 259.653 347.269C259.782 347.287 259.902 347.347 259.993 347.439C260.713 347.769 261.453 348.053 262.209 348.291C262.342 348.31 262.466 348.37 262.564 348.461C263.416 348.802 264.097 349.143 264.779 349.484C264.949 349.484 264.949 349.484 264.949 349.654C265.534 349.904 266.103 350.188 266.653 350.506C266.783 350.524 266.902 350.584 266.994 350.677C269.55 352.097 271.425 353.077 272.277 353.588C272.463 353.676 272.635 353.791 272.788 353.929C296.133 368.924 310.958 392.099 320.33 415.103V415.273C322.034 419.534 323.738 423.794 325.101 427.883C330.164 443.02 333.815 458.593 336.007 474.403C336.178 475.255 336.178 476.107 336.348 476.959C336.859 480.722 337.2 483.619 337.37 485.153C337.511 485.767 337.569 486.398 337.541 487.027" fill="#DD2A1B"/>
<path d="M347.367 474.801C346.345 480.779 345.663 485.039 345.152 487.254C344.982 487.936 344.982 488.674 344.811 489.299C345.158 465.537 342.175 441.843 335.95 418.909C327.089 387.214 309.538 353.588 275.117 338.976C268.158 335.351 260.844 332.454 253.291 330.328V330.328L247.497 328.908H247.327C232.672 325.159 237.955 305.733 242.044 294.827C243.237 291.987 244.089 289.545 244.771 288.352L245.623 288.522C251.076 289.942 256.188 291.249 260.959 292.953C261.159 293.088 261.4 293.149 261.641 293.123C265.427 294.486 269.011 295.85 272.39 297.213C272.561 297.383 272.731 297.383 273.072 297.554C276.48 299.087 279.718 300.621 282.785 302.155C282.955 302.155 282.955 302.325 283.126 302.325C284.546 303.007 285.966 303.859 287.386 304.54C287.556 304.54 287.556 304.711 287.726 304.711C290.566 306.244 293.179 307.948 295.735 309.482C295.906 309.652 296.076 309.652 296.247 309.823C298.632 311.356 300.847 312.89 302.892 314.424C303.063 314.594 303.233 314.594 303.403 314.764C304.39 315.45 305.338 316.19 306.244 316.98V316.98C307.096 317.661 308.118 318.4 308.97 319.024C309.14 319.195 309.311 319.195 309.311 319.365C309.992 319.876 310.731 320.558 311.356 321.069L311.696 321.41C312.378 322.092 313.116 322.603 313.741 323.284C313.786 323.284 313.83 323.302 313.862 323.334C313.894 323.366 313.912 323.41 313.912 323.455L315.445 324.988L315.786 325.329L320.387 329.93L320.898 330.441C339.131 352.267 346.97 379.531 349.867 405.262V405.433C352.593 433.208 349.696 459.28 347.311 474.787" fill="black"/>
<path d="M697.42 139.4C697.42 140 701.32 144.6 706.02 149.5C710.72 154.4 720.02 165.8 726.72 174.7C749.32 204.8 763.32 219.4 795.32 246.2C801.82 251.6 803.32 250.8 800.62 243.2C799.52 240.2 797.22 233.1 795.42 227.3C793.62 221.5 791.52 215.7 790.82 214.3C790.12 212.9 788.62 209.8 787.42 207.3C786.22 204.8 784.72 201.9 784.12 200.8C776.22 187.1 774.12 184.3 763.92 173.9C753.42 163.3 739.22 154.5 720.42 146.8C716.82 145.4 713.02 143.8 711.92 143.4C701.12 138.9 697.42 137.8 697.42 139.4Z" fill="black"/>
<path d="M225.92 143.3C225.149 143.991 224.155 144.381 223.12 144.4C221.92 144.4 218.42 145.7 215.42 147.3C207.72 151.2 200.42 154.8 193.72 158C181.02 163.8 165.72 175.7 157.22 186.3C148.72 196.9 138.42 214.2 138.42 217.9C138.42 219.9 136.42 226.7 131.82 240.8C130.02 246.3 128.42 251.5 128.22 252.3C127.52 255.6 132.12 252.8 144.22 242.5C170.52 220.3 174.32 216 205.82 172.8C209.468 167.737 213.373 162.864 217.52 158.2C227.62 147.6 230.52 144.2 229.92 143.3C229.682 142.996 229.379 142.751 229.032 142.582C228.686 142.413 228.305 142.326 227.92 142.326C227.535 142.326 227.154 142.413 226.808 142.582C226.461 142.751 226.158 142.996 225.92 143.3V143.3Z" fill="black"/>
<path d="M783.42 181.3C785.256 183.951 787.331 186.428 789.62 188.7C794.957 194.429 799.224 201.067 802.22 208.3C803.42 211.3 807.62 226.3 810.42 237.3C811.32 240.8 815.62 256.5 819.42 270.1C821.72 278.3 821.72 278.3 821.52 280.1C821.32 282.5 817.52 280.3 812.62 275C805.72 267.5 795.12 258 789.82 254.6C788.82 253.9 783.02 249.8 777.12 245.6C771.22 241.4 764.32 236.4 761.82 234.7C755.22 230.1 752.92 227.7 746.12 218.6C740.42 210.8 738.42 209.4 738.42 213C738.42 216.6 746.52 237.8 751.12 246.2C756.72 256.2 776.42 277.2 788.92 286.4C809.62 301.6 837.92 329.1 840.82 336.7C841.22 338 841.82 338.3 842.52 337.6C844.22 335.9 843.02 250.3 841.12 242.8C838.986 234.588 835.65 226.737 831.22 219.5C829.72 217.1 828.42 214.8 828.42 214.2C828.42 212.6 807.32 191.8 802.42 188.6C796.42 184.6 788.52 180.6 785.02 179.7C782.32 179.1 782.22 179.1 783.42 181.3Z" fill="black"/>
<path d="M140.72 186.3C124.62 193.6 104.22 212.5 97.02 226.9C87.92 245 84.82 271.2 87.62 306.3C88.42 315.9 88.92 328.7 88.82 334.7C88.52 345.4 88.52 345.5 90.52 343.7C91.9678 342.211 93.1514 340.486 94.02 338.6C97.62 331.1 114.42 313.6 129.12 302C142.92 291.1 147.62 287 155.72 278.8C165.72 268.6 176.42 254.4 181.62 244.6C185.32 237.4 191.42 220.8 191.42 217.6C191.42 214.7 188.42 216.6 184.42 222C182.595 224.544 180.625 226.982 178.52 229.3C174.42 233.3 155.92 248.5 150.42 252.4C133.52 264.4 115.02 282 109.82 290.8C108.42 293.3 106.82 295.3 106.32 295.3C104.92 295.3 105.22 289.8 106.82 286.6C108.094 283.757 109.131 280.814 109.92 277.8C113.52 265.2 114.32 262.6 115.72 257.3C116.62 254.3 118.02 248.2 118.92 243.8C119.82 239.4 121.32 233.7 122.02 231.1C122.683 229.083 123.152 227.006 123.42 224.9C123.642 223.239 124.114 221.62 124.82 220.1C125.62 218.3 127.02 214.8 128.02 212.3C131.32 204.4 136.72 195.9 142.12 190.7C148.72 184.2 148.32 182.8 140.72 186.3Z" fill="black"/>
<path d="M848.42 238.9C848.946 240.346 849.581 241.75 850.32 243.1C857.42 256.8 857.92 261.8 856.52 298.4C855.92 315.1 855.42 340.4 855.42 354.5C855.42 368.6 855.02 380.4 854.52 380.7C853.32 381.5 851.92 379.5 850.42 374.8C844.42 355.9 838.62 348.4 806.92 318.2C800.22 311.9 791.32 303.1 787.12 298.5C780.12 291.1 777.42 289 777.42 291C777.52 292.1 781.02 305 782.82 310.3C786.42 321.2 792.22 335.1 794.12 337.4C794.759 338.07 795.208 338.899 795.42 339.8C795.42 340.7 808.82 360.5 815.22 369C825.32 382.4 837.32 399.2 840.02 403.9C841.62 406.6 843.42 409.7 844.12 410.8C844.82 411.9 845.62 413.5 846.02 414.3C846.42 415.1 847.82 418.5 849.42 421.8C854.52 433.2 855.42 435.4 855.42 437.1C855.42 439.1 858.12 443.3 859.42 443.3C859.82 443.3 861.12 440 862.32 436C863.52 432 865.12 426.5 865.92 423.8C866.72 421.1 868.92 412.5 870.92 404.8C872.92 397.1 876.12 385.4 878.32 378.8C887.32 351.1 887.92 328.8 880.22 294.3C879.12 289.1 877.82 284.4 877.32 283.9C876.775 283.214 876.461 282.375 876.42 281.5C876.42 280.7 873.82 274.8 870.62 268.4C863.52 254.3 852.62 238.3 850.22 238.3C849.22 238.3 848.42 238.5 848.42 238.9Z" fill="black"/>
<path d="M74.42 250.5C68.82 258.3 69.42 257.2 60.12 275.5C51.62 292.2 50.12 297.2 48.22 315.3C46.12 335.5 46.82 353.4 50.12 367.3C51.82 374.6 56.92 390.7 58.52 393.8C60.62 398.1 68.62 422.2 70.52 430.3C73.12 440.7 75.42 447.3 76.52 447.3C77.02 447.3 77.72 446.1 78.02 444.5C80.12 435.6 86.42 421.2 92.72 410.9C96.52 404.7 121.42 367.9 124.92 363.3C130.22 356.4 138.42 342.3 138.42 340.3C138.426 339.388 138.744 338.506 139.32 337.8C140.42 336.6 146.12 323.3 148.02 317.3C152.72 303 153.62 296.6 150.82 297.7C150.2 297.939 149.565 298.139 148.92 298.3C148.82 298.3 146.12 301.4 143.02 305.3C139.244 309.776 135.096 313.924 130.62 317.7C121.136 325.672 112.152 334.222 103.72 343.3C95.42 352.5 83.32 374.4 81.92 382.8C80.82 389.2 79.12 393.3 77.62 393.3C76.42 393.3 76.32 392 76.82 386.5C78.7418 366.472 78.6078 346.3 76.42 326.3C75.22 315.6 73.92 305 73.42 302.8C71.72 295.7 72.32 276.5 74.32 266.3C76.32 256.5 78.82 248.5 80.52 246.8C81.82 245.5 81.62 244.3 80.22 244.3C79.52 244.3 76.92 247.1 74.42 250.5Z" fill="black"/>
<path d="M896.92 360C896.62 362.1 895.92 366.3 895.42 369.4C894.856 372.302 894.521 375.245 894.42 378.2C894.375 380.565 894.039 382.916 893.42 385.2C892.92 387.2 891.52 392.8 890.42 397.8C889.32 402.8 887.62 408.5 886.92 410.5C886.22 412.5 884.72 416.2 883.82 418.5C881.861 423.879 879.624 429.152 877.12 434.3C875.82 437.3 873.62 442.3 872.42 445.3C871.22 448.3 869.62 452.1 868.92 453.8C865.52 461.2 861.72 474.1 859.02 486.6C857.42 494.3 857.02 495 855.12 493.4C854.12 492.6 853.52 488.7 853.12 479.5C852.62 466.1 851.62 461.8 845.42 447.3C844.227 444.386 842.858 441.547 841.32 438.8C840.752 438.081 840.404 437.213 840.32 436.3C840.22 434.8 838.72 432.3 830.32 419.7C827.82 415.9 825.42 412.1 825.02 411.3C824.62 410.5 822.82 407.1 820.92 403.8C819.02 400.5 815.82 394.4 813.82 390.3C808.02 378.4 806.62 375.8 805.72 375.8C804.22 375.8 804.32 391.8 805.92 402.3C808.02 416.5 814.12 444.9 817.82 457.8C820.92 468.4 825.62 484.1 827.82 491.3C835.22 514.6 836.72 523.6 836.22 541.7C835.82 559.5 836.52 560.9 842.02 552.8C844.22 549.7 851.32 540.1 857.92 531.3C888.62 490.6 891.72 485.6 898.32 465.2C906.42 440 909.02 403.7 904.42 378.1C903.32 371.6 902.02 365.3 901.52 364.1C900.836 362.458 900.326 360.749 900 359C899.12 355.1 897.62 355.6 896.92 360Z" fill="black"/>
<path d="M34 363.5C33.8 364.2 33.2 366.4 32.6 368.3C32 370.2 30.4 377.2 29.2 383.8C25.2 405.5 26.6 441.3 32.1 458.8C42.4 491.2 53.5 511.5 73.5 533.7C80.195 541.313 86.3754 549.365 92 557.8C94.4 561.6 96.1 563.3 97.2 563.1C98.7 562.8 99 560.3 99.5 541.3C100.2 518.9 101.3 511.3 105.8 498C107.1 494 108.9 488.2 109.8 485C110.7 481.8 112.1 476.7 113 473.5C113.9 470.3 115.1 466.4 115.6 464.8C116.318 462.668 116.919 460.498 117.4 458.3C117.8 456.4 119.3 450.4 120.8 444.9C122.3 439.4 123.4 433 123.4 430.4C123.469 427.509 123.803 424.63 124.4 421.8C127.5 409 129.8 378.3 127.7 378.3C124.8 378.4 122.6 382.1 109.5 408.8C98.9 430.4 95.8 436.9 90.9 448.8C81.8 470.8 81.4 472.7 81.4 491.9C81.4 505.5 81.2 508.3 80 508.3C77.8 508.3 77.3 507.1 75.3 495.5C71.8 475.4 68.9 465.8 62.5 452.1C50 425.4 41.8 404.2 38.3 389.8C37.4082 384.573 36.8405 379.297 36.6 374C36.22 364.5 35 359.8 34 363.5Z" fill="black"/>
<path d="M807.92 474.5C806.72 478.6 804.42 486.7 803.02 492.3C802.02 495.9 800.62 501 799.92 503.8C797.92 510.7 794.22 539.1 792.42 561.3C789.82 593.3 789.22 599.1 788.42 601.8C787.762 604.434 787.261 607.106 786.92 609.8C785.22 624.1 778.72 647 774.32 654.5C772.52 657.6 771.62 659.9 772.22 660.5C773.32 661.6 785.72 654.3 804.72 641.4C811.72 636.7 818.22 632.3 819.22 631.8C822.42 629.9 833.92 622 839.92 617.4C857.417 604.489 872.627 588.737 884.92 570.8C889.42 564.2 898.72 545.8 901.32 538.3C906.52 523.3 911.32 485.5 908.62 480.7C907.42 478.5 907.62 478.2 904.92 487.8C899.12 508.6 890.52 521.5 864.42 548.4C843.62 569.8 835.62 579.1 827.22 591.3C824.42 595.4 819.92 602.1 817.12 606C814.32 609.9 811.82 613.3 811.42 613.3C809.52 613.3 809.62 611.5 811.62 607.2C815.92 598.2 816.42 596.6 818.32 588.8C823.52 566.9 823.42 552.7 818.02 526.8C813.32 504.5 811.42 490.7 811.42 480C811.42 474.7 811.12 473.3 809.92 473.3C809.511 473.309 809.111 473.424 808.761 473.634C808.41 473.845 808.12 474.143 807.92 474.5V474.5Z" fill="black"/>
<path d="M124 483.3C123.8 484.1 123.3 487.7 123 491.3C121.367 504.602 118.93 517.793 115.7 530.8C114.6 534.9 114 543.2 113.6 556.8C112.9 587.8 115.3 601.4 123.7 612.4C126.9 616.7 127.2 619.3 124.5 619.3C123.3 619.3 121.2 616.9 118.3 612.2C115.9 608.3 111.9 602.4 109.4 599.1C106.9 595.8 104.2 591.9 103.3 590.6C102.4 589.3 98.1 584.3 93.8 579.6C89.5 574.9 84.6 569.7 83 567.9C81.4 566.1 76 560.6 71 555.4C56.4 540.2 45.4 528.1 45.4 527.1C45.4 526.6 43.8 524.1 41.9 521.7C37.6 516 30.4 501.2 30.4 498.1C30.3488 496.532 29.8642 495.009 29 493.7C27.6 491.9 27.5 491.9 26.8 494.7C25 501.9 27.9 527.7 32.1 542.8C36.5 558.4 55.6 588.9 68.1 600.3C78.6495 610.254 89.9496 619.381 101.9 627.6C120.2 640.6 128.5 646.1 138.4 652.2C144.2 655.8 151.7 660.6 155.2 663C160.9 666.9 164.4 668.3 164.4 666.7C164.4 666.1 160.1 656.6 157.4 651.3C150.4 637.6 145.9 611.7 141.4 559.8C140.6 551.1 139.4 541.7 136.3 522.3C135.024 513.697 133.22 505.181 130.9 496.8C130.2 494 129.3 490.7 129 489.3C128.453 487.505 127.608 485.815 126.5 484.3C125 482.4 124.42 482.1 124 483.3Z" fill="black"/>
<path d="M772.42 569.9C765.52 579.2 755.22 594.5 751.72 600.8C746.42 610 738.42 627.8 735.82 635.8C735.12 638 733.62 642.3 732.42 645.3C731.267 648.077 730.265 650.914 729.42 653.8C728.92 655.4 726.92 661.3 724.92 666.8C722.92 672.3 720.92 678.3 720.42 680.1C719.12 685.3 707.92 706.7 702.72 714C699.602 718.27 696.264 722.376 692.72 726.3C684.92 734.7 685.52 735.7 695.92 732.3C702.758 729.991 709.785 728.284 716.92 727.2C720.254 726.714 723.559 726.047 726.82 725.2C728.774 724.649 730.79 724.347 732.82 724.3C738.52 724.3 761.32 718.9 770.42 715.4C773.42 714.2 778.32 712.4 781.22 711.3C793.12 707 821.52 687.4 836.32 673.3C845.72 664.3 864.42 640.1 864.42 636.9C864.626 635.967 865.075 635.105 865.72 634.4C866.92 633 868.22 630 872.32 619.8C873.969 616 875.242 612.048 876.12 608C876.42 606.5 877.02 605 877.52 604.7C878.02 604.4 878.42 603 878.42 601.5V598.8L875.92 601.8C874.895 603.003 874.052 604.351 873.42 605.8C873.42 607.4 858.62 624 851.62 630.4C838.52 642.4 834.12 645.2 806.92 659C792.32 666.4 785.12 670.1 775.02 675.7C764.92 681.3 744.12 695.5 737.22 701.4C728.52 709 726.32 707.8 734.02 699.7C746.22 686.8 758.72 663.6 763.32 645.3C764.52 640.4 770.12 609.2 771.42 600.3C772.92 589.5 777.92 569.4 779.42 567.9C780.62 566.7 780.72 562.6 779.62 561.9C779.12 561.6 775.92 565.2 772.42 569.9Z" fill="black"/>
<path d="M153.42 568.8C153.509 569.947 153.814 571.067 154.32 572.1C155.72 574.6 158.92 585.6 160.92 594.8C161.82 599.2 163.22 605.3 163.92 608.3C165.041 613.243 165.842 618.254 166.32 623.3C167.72 636.2 170.12 647.6 173.02 655.3C173.764 657.433 174.398 659.602 174.92 661.8C176.92 671.2 194.22 700.2 197.92 700.3C198.52 700.3 200.62 701.8 202.62 703.6C204.62 705.4 207.52 707.6 208.92 708.6C211.92 710.7 212.32 714.3 209.52 714.3C207.912 713.998 206.441 713.192 205.32 712C203.119 709.983 200.816 708.081 198.42 706.3C195.92 704.4 193.22 702.3 192.42 701.5C191.62 700.7 185.82 696.8 179.52 692.7C173.22 688.6 167.32 684.7 166.52 683.9C163.72 681.5 156.92 678 127.42 663.4C93.92 647 79.12 636 65.32 617.8C63.3807 615.343 61.6417 612.735 60.12 610C59.82 609.1 59.02 608.3 58.42 608.3C57.22 608.3 57.02 614.5 58.22 615.9C59.4146 618.124 60.4505 620.43 61.32 622.8C66.02 635.1 76.22 652.7 84.72 663.1C89.62 669.1 109.32 688.2 115.62 693.1C131 705 152 716 167.42 720.2C169.92 720.9 173.92 722 176.42 722.8C179.216 723.591 182.053 724.226 184.92 724.7C187.12 725 194.32 726.2 200.92 727.3C207.52 728.4 214.92 729.8 217.42 730.2C219.399 730.449 221.345 730.919 223.22 731.6C223.82 732.1 226.52 732.8 229.22 733.3C231.92 733.8 236.52 734.6 239.82 735.3C243.12 736 246.02 736.1 246.52 735.6C247.02 735.1 244.92 732.1 242.02 728.8C238.25 724.412 234.744 719.804 231.52 715C226.02 706.9 215.12 686.1 213.42 680.8C210.52 671.1 197.32 635.1 194.42 628.8C184.62 607.2 181.62 602.2 167.52 583.1C156.72 568.4 153.42 565.1 153.42 568.8Z" fill="black"/>
<path d="M716.42 654.4C711.82 656.3 688.72 676.5 663.02 701.2C642.22 721.1 627.32 733.4 615.92 740.2C607.62 745.1 593.42 751.3 590.42 751.3C589.566 751.271 588.725 751.516 588.02 752C587.62 752.5 584.32 753.2 580.72 753.8C571.52 755.2 571.72 756.8 581.12 758.2C590.32 759.7 604.92 762.7 611.92 764.8C623.566 767.98 635.385 770.484 647.32 772.3C650.82 772.9 654.12 773.6 654.72 774C656.52 775.1 670.22 776.4 686.92 777C708.12 777.7 717.02 776.5 736.72 770.1C764.42 761.2 796.72 735.5 809.72 712C811.22 709.4 811.92 707.3 811.32 707.3C810.72 707.3 807.92 709.5 805.12 712.1C802.32 714.7 797.92 718.5 795.42 720.4C787.62 726.5 769.42 734.3 757.42 736.7C746.42 738.9 722.62 742.3 717.42 742.3C714.529 742.374 711.651 742.709 708.82 743.3C705.019 744.023 701.179 744.524 697.32 744.8C693.22 745.1 688.82 745.5 687.42 745.8C686.02 746.1 682.72 746.5 679.92 746.8C677.12 747.1 673.62 747.5 671.92 747.8C670.22 748.1 665.62 748.5 661.62 748.8C657.62 749.1 653.42 749.8 652.42 750.3C649.62 751.8 639.42 751.6 639.42 750C639.52 748.6 645.62 745.3 648.22 745.3C650.62 745.3 665.02 737.4 671.32 732.7C674.22 730.6 678.92 725.6 681.82 721.8C686.52 715.6 699.42 695.1 699.42 693.9C699.42 693.6 701.12 689.7 703.32 685.1C705.52 680.5 708.02 674.8 709.12 672.3C710.538 669.187 712.175 666.18 714.02 663.3C716.52 659.4 719.72 653.2 719.12 653.4C719 653.4 717.82 653.9 716.42 654.4Z" fill="black"/>
<path d="M215.42 657.4C215.42 658 217.62 662.2 220.32 666.7C223.02 671.2 228.12 680.4 231.72 687.3C235.32 694.2 239.12 701.4 240.32 703.3C241.52 705.2 242.72 707.5 243.12 708.3C245.02 712.6 253.12 723.9 257.92 729.2C266.02 737.9 282.62 748.3 288.52 748.3C290.352 748.514 292.05 749.363 293.32 750.7C295.52 753 295.52 753.1 293.72 753.7C292.72 754 289.22 753.6 286.12 752.8C282.844 751.974 279.494 751.472 276.12 751.3C272.524 751.097 268.947 750.629 265.42 749.9C263.125 749.32 260.782 748.952 258.42 748.8C257.92 749.1 241.52 747.9 232.92 746.9C230.72 746.6 221.62 745.9 212.62 745.3C203.62 744.7 195.22 743.8 193.82 743.3C191.989 742.652 190.062 742.314 188.12 742.3C183.993 741.743 179.915 740.874 175.92 739.7C171.02 738.4 165.52 736.9 163.72 736.4C155.12 734.1 136.52 723.1 128.22 715.3C127.236 714.303 125.986 713.609 124.62 713.3C121.02 713.3 134.52 730 148.62 742.9C165.12 758 186.32 770.4 204.42 775.5C228.52 782.2 265.22 781.5 295.42 773.8C298.42 773.1 304.32 771.7 308.42 770.8C312.52 769.9 318.22 768.6 320.92 767.9C333.62 764.4 338.62 763.2 348.12 761.3C353.62 760.2 358.62 759.3 359.02 759.3C359.42 759.3 358.92 758.4 357.92 757.3C357.108 756.293 355.981 755.589 354.72 755.3C350.62 755.3 320.52 743.5 312.42 738.7C305.32 734.5 300.02 730 282.92 714C258.62 691 254.12 686.9 245.92 679.7C241.52 675.9 237.72 672.5 237.42 672.2C237.12 671.9 233.42 668.9 229.12 665.5C220.22 658.5 215.42 655.6 215.42 657.4Z" fill="black"/>
<path d="M503.92 756.5C498.839 756.912 493.793 757.681 488.82 758.8C486.375 759.545 483.863 760.048 481.32 760.3C480.032 760.265 478.768 760.651 477.72 761.4C475.82 763.3 464.22 763.7 460.32 762.1C452.42 758.7 447.42 758 427.92 757.5C402.52 757 389.22 759 368.42 766.5C365.799 767.473 363.129 768.307 360.42 769C359.194 769.253 358.014 769.691 356.92 770.3C354.477 771.409 351.973 772.377 349.42 773.2C345.82 774.4 341.62 776.1 339.92 776.8C338.22 777.5 333.32 779.6 328.92 781.3C324.52 783 319.62 785 317.92 785.8C309.52 789.5 306.62 790.6 296.42 794.2C283.32 798.9 256.92 801.3 240.92 799.5C230.935 798.109 221.181 795.384 211.92 791.4C198.92 785.5 199.42 785.6 199.42 787.7C199.42 789.6 221.82 808.3 224.02 808.3C224.9 808.547 225.696 809.032 226.32 809.7C228.12 811.2 236.92 815.8 245.42 819.6C252.608 822.793 260.167 825.077 267.92 826.4C291.72 829.8 289.12 829.8 310.42 826.3C324.12 824.1 339.72 818.2 356.42 809.2C359.42 807.6 376.52 796.4 388.22 788.4C410.02 773.6 421.72 768.9 436.92 768.8C450.42 768.8 450.62 770.2 438.22 776.7C420.42 785.9 411.82 791.2 397.42 801.4C385.42 809.9 352.42 838.6 352.42 840.5C352.42 842.8 366.62 854.3 369.42 854.3C370.32 854.3 374.72 850.1 379.22 845C383.72 839.9 390.92 832.6 395.12 828.8C399.32 825 406.42 818.4 410.92 814.3C415.382 810.192 420.084 806.352 425 802.8C428.2 800.6 434.3 796.3 438.4 793.3C447.2 786.9 449.1 785.6 452.1 784.3C454.338 783.232 456.508 782.03 458.6 780.7C466.7 775.6 476 777.8 492.4 788.9C510.6 801.1 526.6 814.4 545.9 833.4C560.5 847.7 567 853.3 568.9 853.3C571.3 853.3 583.4 841 583.4 838.6C583.4 837.2 580.8 834.2 575.7 829.6C571.4 825.9 567.7 822.5 567.4 822.2C566.5 821.1 541.9 802.7 537.4 799.7C534.9 798 530 794.6 526.4 792.1C521.722 788.918 516.882 785.981 511.9 783.3C507.5 780.9 501.4 777.7 498.4 776.1C491.1 772.2 490.5 771.5 492.8 769.7C495.1 767.9 507.6 767.8 514.4 769.4C523.2 771.4 536.7 779.1 558.5 794.6C560.822 796.333 563.261 797.903 565.8 799.3C567.523 800.026 569.166 800.931 570.7 802C577.2 806.3 577.8 806.6 586.1 810.7C595.7 815.4 598.5 816.6 604.9 818.6C625.2 824.9 646.9 826.8 666.2 823.8C686.5 820.7 702.8 813.3 723.4 797.7C733.1 790.4 740.5 783.2 738.7 782.6C738.2 782.4 734.2 784 729.8 786.1C712.5 794.5 703.7 796.3 679.7 796.3C652.3 796.3 641.3 793.9 614.4 782.4C606.4 778.9 595.9 774.6 590.9 772.6C585.9 770.6 580.3 768.5 578.4 767.8C571.515 765.277 564.506 763.107 557.4 761.3C555.5 760.8 551.2 759.7 547.9 758.9C542.459 757.794 536.944 757.092 531.4 756.8C525.6 756.5 519.3 756.1 517.4 755.9C512.899 755.872 508.4 756.072 503.92 756.5Z" fill="black"/>
</svg>
