<svg width="446" height="108" viewBox="0 0 446 108" fill="none" xmlns="http://www.w3.org/2000/svg">
<path d="M1.66998 3.67001H68.21C79.0166 3.67001 88.4533 5.02334 96.52 7.73001C104.2 10.1963 111.178 14.4652 116.87 20.18C121.729 24.8437 125.64 30.4023 128.39 36.55C131.057 42.4346 132.441 48.8194 132.45 55.28C132.513 62.0404 131.014 68.724 128.07 74.81C125.126 80.8196 120.9 86.1105 115.69 90.31C110.045 94.8325 103.6 98.2521 96.69 100.39C89.012 102.833 80.9971 104.051 72.94 104H1.66998V101.2H5.32999C11.4967 101.2 16.08 99.7034 19.08 96.71C22.08 93.7167 23.5733 89.1366 23.56 82.97V24.56C23.56 18.34 22.0766 13.7467 19.11 10.78C16.1433 7.81333 11.55 6.32999 5.32999 6.32999H1.66998V3.67001ZM44.74 6.32999V101.15H64.12C68.8038 101.208 73.4849 100.897 78.12 100.22C81.6027 99.702 84.9895 98.6708 88.17 97.16C91.0001 95.7798 93.5551 93.8957 95.71 91.6C103.65 83.52 107.62 71.08 107.62 54.28C107.645 49.041 107.153 43.8122 106.15 38.67C105.314 34.1652 103.878 29.7928 101.88 25.67C100.091 22.0381 97.727 18.7187 94.88 15.84C92.5571 13.56 89.8745 11.6781 86.94 10.27C83.7054 8.77457 80.2743 7.7476 76.75 7.22C72.1514 6.54745 67.5072 6.2365 62.86 6.29001L44.74 6.32999Z" fill="black" stroke="black" stroke-width="3" stroke-miterlimit="10"/>
<path d="M149.58 101.15H152.37C158.55 101.15 163.133 99.6533 166.12 96.66C169.107 93.6666 170.603 89.0866 170.61 82.92V22.34C170.363 19.7593 169.771 17.2234 168.85 14.8C168.084 12.966 166.858 11.3609 165.29 10.14C162.417 7.60001 158.11 6.32999 152.37 6.32999H149.58V3.67001H212.74V6.32999H209.94C203.767 6.32999 199.197 7.81333 196.23 10.78C193.263 13.7467 191.78 18.34 191.78 24.56V82.92C191.78 89.0933 193.277 93.6733 196.27 96.66C199.263 99.6466 203.82 101.143 209.94 101.15H212.74V104H149.58V101.15Z" fill="black" stroke="black" stroke-width="3" stroke-miterlimit="10"/>
<path d="M221.4 3.67001H280V6.32999H272.82C270.114 6.17985 267.429 6.87911 265.14 8.32999C264.233 8.96258 263.501 9.81406 263.012 10.8053C262.522 11.7966 262.291 12.8955 262.34 14C262.469 16.8399 263.177 19.6234 264.42 22.18L291.77 82.18L314.77 30.43C316.393 27.237 317.323 23.7373 317.5 20.16C317.583 18.3441 317.284 16.531 316.622 14.8378C315.961 13.1446 314.952 11.6089 313.66 10.33C311.1 7.88999 307.547 6.55665 303 6.32999V3.67001H343.41V6.32999C339.786 6.69119 336.283 7.8305 333.14 9.67001C329.9 11.6768 327.095 14.312 324.89 17.42C321.923 21.6368 319.396 26.1471 317.35 30.88L284.05 105.88L281.54 106.02L242.7 21.32C238.113 11.32 232.18 6.32001 224.9 6.32001H221.4V3.67001Z" fill="black" stroke="black" stroke-width="3" stroke-miterlimit="10"/>
<path d="M381 1.67001H383.66L424 89.38C425.108 91.8273 426.571 94.0983 428.34 96.12C429.822 97.8057 431.678 99.1209 433.76 99.96C436.032 100.797 438.44 101.201 440.86 101.15H443.52V104H385.31V101.2H392.92C396.7 101.2 399.46 100.69 401.21 99.65C402.049 99.1789 402.738 98.4824 403.202 97.6393C403.665 96.7963 403.882 95.8404 403.83 94.88C403.773 93.2088 403.434 91.5591 402.83 90C402.163 88.0867 400.643 84.6167 398.27 79.59C398.12 79.31 397.91 78.83 397.62 78.16C397.33 77.49 397.02 76.84 396.69 76.22L395 72.51H352.51L349.28 80C348.246 82.4289 347.709 85.0402 347.7 87.68C347.727 89.9826 348.358 92.2378 349.53 94.22C350.637 96.2569 352.289 97.9464 354.3 99.1C355.383 99.7729 356.554 100.291 357.78 100.64C359.234 100.955 360.713 101.136 362.2 101.18V104H321.35V101.2C323.767 100.992 326.145 100.46 328.42 99.62C330.522 98.6905 332.489 97.4831 334.27 96.03C339.35 92.11 344.303 84.7166 349.13 73.85L381 1.67001ZM373.39 25.14L353.73 69.85H393.56L373.39 25.14Z" fill="black" stroke="black" stroke-width="3" stroke-miterlimit="10"/>
</svg>
